<svg width="33" height="33" viewBox="0 0 33 33" fill="none" xmlns="http://www.w3.org/2000/svg">
<path d="M17.875 2.75C17.1457 2.75 16.4462 3.03973 15.9305 3.55546C15.4147 4.07118 15.125 4.77065 15.125 5.5C15.125 6.22935 15.4147 6.92882 15.9305 7.44454C16.4462 7.96027 17.1457 8.25 17.875 8.25C19.4012 8.25 20.625 7.02625 20.625 5.5C20.625 4.77065 20.3353 4.07118 19.8195 3.55546C19.3038 3.03973 18.6043 2.75 17.875 2.75ZM5.5 9.625V12.375H13.75V20.625L6.77875 27.5962L8.7175 29.5625L17.9575 20.3088L23.375 23.5537V28.875H26.125V22.7837C26.125 22.2887 25.8775 21.8487 25.4375 21.6012L20.625 18.7V12.375H28.875V9.625H5.5Z" fill="white"/>
</svg>
